<?xml version="1.0" standalone="no"?><!DOCTYPE svg PUBLIC "-//W3C//DTD SVG 1.1//EN" "http://www.w3.org/Graphics/SVG/1.1/DTD/svg11.dtd"><svg t="1692662727187" class="icon" viewBox="0 0 1024 1024" version="1.1" xmlns="http://www.w3.org/2000/svg" p-id="6944" xmlns:xlink="http://www.w3.org/1999/xlink" width="200" height="200"><path d="M822.86 312.05a55.84 55.84 0 0 0-12.95-35.85l-39.11-46.71c-14.54-17.35-37.54-23.63-58.5-16-21.71 7.89-35.72 28.24-35.72 51.85v367.8h146.28zM585.14 257.36a56 56 0 0 0-12.94-35.88l-39.12-46.81c-14.52-17.37-37.46-23.67-58.46-16-21.73 7.88-35.77 28.27-35.77 51.94v422.53h146.29zM347.43 312.05a55.83 55.83 0 0 0-12.95-35.85l-39.12-46.71c-14.54-17.35-37.53-23.63-58.5-16-21.7 7.89-35.72 28.24-35.72 51.85v367.8h146.29zM948.19 687.95a54.85 54.85 0 0 0-43-20.53h-34.3v2.29H676.57v89.14a18.29 18.29 0 1 1-36.57 0v-89.14h-36.57v89.14a18.29 18.29 0 1 1-36.57 0v-89.14h-36.57v89.14a18.29 18.29 0 1 1-36.57 0v-89.14h-36.58v89.14a18.29 18.29 0 1 1-36.57 0v-89.14H384v89.14a18.29 18.29 0 1 1-36.57 0v-89.14H160v-2.29h-41.17a54.85 54.85 0 0 0-43 20.53 53.19 53.19 0 0 0-10.53 45L86 826.09c5.45 24.62 28 42.48 53.55 42.48h745c25.58 0 48.1-17.86 53.55-42.47l20.62-93.1a53.2 53.2 0 0 0-10.53-45.05z" fill="#22B573" p-id="6945"></path></svg>