<?xml version="1.0" standalone="no"?><!DOCTYPE svg PUBLIC "-//W3C//DTD SVG 1.1//EN" "http://www.w3.org/Graphics/SVG/1.1/DTD/svg11.dtd"><svg t="1692708323565" class="icon" viewBox="0 0 1024 1024" version="1.1" xmlns="http://www.w3.org/2000/svg" p-id="13464" xmlns:xlink="http://www.w3.org/1999/xlink" width="200" height="200"><path d="M76.24798 22.244257l256.672944 496.819368h358.318355L948.058475 22.244257a40.000029 40.000029 0 1 1 70.932409 37.001855L781.842634 519.063625h142.157323c55.210277 0 100.036635 44.826357 100.036634 100.036634v215.941654c0 55.210277-44.826357 99.963508-100.036634 99.963508h-42.266941c-3.729436 48.62892-33.272419 86.142657-69.17738 86.142657h-6.946989c-36.051214 0-65.667323-37.733117-69.323632-86.069531l-449.433594-0.073126c-3.65631 48.62892-33.272419 86.28891-69.17738 86.28891H210.727053c-35.978088 0-65.594197-37.806243-69.250507-86.28891h-41.243174c-51.919598 0-94.625296-39.634398-99.451625-90.310851l-0.511883-9.652657V619.100259c0-55.210277 44.753231-99.963508 99.963508-99.963508l142.01107-0.073126-6.581357-13.016463L20.818325 90.397871 4.291805 58.222345A40.219407 40.219407 0 0 1 76.174854 22.244257zM923.999957 599.136808H100.306498a19.963451 19.963451 0 0 0-19.963451 19.963451v215.941654c0 11.042055 8.921396 20.036577 19.963451 20.036577h823.766585a19.963451 19.963451 0 0 0 20.036577-20.036577V619.100259a19.963451 19.963451 0 0 0-20.036577-19.963451z m-62.888528 77.952524c30.347371 0 54.917772 24.643528 54.917773 54.990898v1.023767a54.990899 54.990899 0 0 1-47.605153 53.455248l-7.31262 0.511884a54.990899 54.990899 0 1 1 0-109.981797z m-131.992781 0c30.347371 0 54.990899 24.643528 54.990898 54.990898v1.023767a54.990899 54.990899 0 0 1-47.678279 53.455248l-7.312619 0.511884a54.990899 54.990899 0 1 1 0-109.981797z m-130.969015 0c30.347371 0 54.990899 24.643528 54.990898 54.990898v1.023767a54.990899 54.990899 0 0 1-47.678279 53.455248l-7.312619 0.511884a54.990899 54.990899 0 1 1 0-109.981797z m54.77152-405.48475l10.237667 9.579531a40.292533 40.292533 0 1 1-57.038432 57.038432 132.724044 132.724044 0 0 0-179.012925-8.190134l-8.921396 8.117008a40.000029 40.000029 0 0 1-21.864732 10.603298l-6.1426 0.438757a40.000029 40.000029 0 0 1-28.007333-68.007361 213.016606 213.016606 0 0 1 290.749751-9.506405z m92.577762-98.354733l12.577706 11.992696a40.000029 40.000029 0 0 1-28.007333 68.007362v0.95064a40.000029 40.000029 0 0 1-28.007333-11.992696 269.250649 269.250649 0 0 0-367.459128-10.74955l-11.407687 10.74955a40.292533 40.292533 0 0 1-61.572256-51.407715l4.60695-5.557591a347.934435 347.934435 0 0 1 479.269081-11.992696z" fill="#01CAA1" p-id="13465"></path></svg>